<svg width="52" height="52" viewBox="0 0 52 52" fill="none" xmlns="http://www.w3.org/2000/svg">
<path d="M26 50.96C39.7851 50.96 50.96 39.7851 50.96 26C50.96 12.215 39.7851 1.04004 26 1.04004C12.215 1.04004 1.04004 12.215 1.04004 26C1.04004 39.7851 12.215 50.96 26 50.96Z" fill="#F9BF34"/>
<path d="M21.8989 38.0918C22.0896 40.1891 23.8507 41.8358 26 41.8358C28.1493 41.8358 29.9104 40.1891 30.1011 38.0918H21.9024H21.8989Z" fill="white"/>
<path d="M41.9712 33.8102L37.4368 30.9814V21.9056C37.4368 16.4803 33.6581 11.9424 28.5898 10.7672V9.17603C28.5898 7.74429 27.432 6.58643 26.0002 6.58643C24.5685 6.58643 23.4106 7.74429 23.4106 9.17603V10.7672C18.3424 11.9424 14.5637 16.4803 14.5637 21.9056V30.9814L10.0293 33.8102C8.85062 34.5451 9.37062 36.3651 10.7608 36.3651H41.2397C42.6298 36.3651 43.1498 34.5451 41.9712 33.8102Z" fill="white"/>
</svg>
