<svg width="50" height="50" viewBox="0 0 50 50" fill="none" xmlns="http://www.w3.org/2000/svg">
<g clip-path="url(#clip0_322_582)">
<path d="M25 49C38.2548 49 49 38.2548 49 25C49 11.7452 38.2548 1 25 1C11.7452 1 1 11.7452 1 25C1 38.2548 11.7452 49 25 49Z" fill="white"/>
<path d="M44.9201 23.9466C44.8568 23.6599 44.6268 23.4166 44.2368 23.2132C44.0901 23.1366 43.9268 23.0799 43.7701 23.0232C43.6268 22.9732 43.3234 22.8632 43.2934 22.7966C43.2401 22.6832 43.2668 22.4732 43.2934 22.2632C43.3134 22.1066 43.3334 21.9432 43.3301 21.7766C43.3068 21.0632 43.0568 20.6232 42.5901 20.4732C42.1834 20.3432 41.6734 20.6366 41.4368 20.8299C41.0901 21.1132 40.7168 21.4099 40.3268 21.6566C40.1501 21.7666 39.9901 21.8899 39.8301 22.0099C39.6068 22.1799 39.3968 22.3399 39.1701 22.4466C38.9568 22.5466 38.7101 22.5832 38.4468 22.6199C38.2334 22.6499 38.0134 22.6832 37.7968 22.7532C37.6068 22.8132 37.4234 22.8899 37.2434 22.9632C36.9834 23.0699 36.7368 23.1699 36.4834 23.2199L36.2568 23.2666C36.2568 23.2666 36.2534 23.2666 36.2501 23.2666C36.2568 23.2066 36.2534 23.1499 36.2634 23.0866C36.3001 22.8032 36.3401 22.5099 36.2801 22.2132C36.2168 21.9032 36.0901 21.6166 35.9668 21.3432L35.9534 21.3166C35.9301 21.2632 35.9068 21.2099 35.8834 21.1566C36.1034 21.0699 36.3068 20.9599 36.5034 20.8499C36.6168 20.7866 36.7334 20.7232 36.8501 20.6666C37.0001 20.5932 37.1668 20.5399 37.3434 20.4832C37.6701 20.3766 38.0068 20.2699 38.2868 20.0232C38.5634 19.7799 38.7101 19.4566 38.8501 19.1432C38.9268 18.9699 39.0001 18.8099 39.0934 18.6699C39.3368 18.3032 39.4468 17.9366 39.5668 17.5466L39.5734 17.5199C39.5968 17.4399 39.6234 17.3566 39.6501 17.2732C39.6968 17.1266 39.8268 16.9666 39.9601 16.7966C40.1734 16.5299 40.4168 16.2232 40.4334 15.8366C40.4501 15.4499 40.3434 15.0832 40.2368 14.7299L40.1834 14.7466L40.2368 14.7232C40.1901 14.5732 40.1501 14.4299 40.1201 14.2932C40.0068 13.7666 39.7834 13.2966 39.5601 12.8666C39.3068 12.3799 39.0701 11.9466 38.7301 11.5732C38.4801 11.2999 38.1634 11.1366 37.8601 10.9799C37.7101 10.9032 37.5701 10.8299 37.4434 10.7499C36.9734 10.4499 36.5601 10.2499 36.1001 10.1032C35.9501 10.0566 35.7901 9.95658 35.6168 9.84991C35.3368 9.67658 35.0168 9.47991 34.6468 9.46324C34.3068 9.44658 33.9968 9.58991 33.7201 9.71658C33.5534 9.79324 33.3934 9.86658 33.2534 9.89324C33.1134 9.91991 32.9634 9.93658 32.8068 9.94991H32.8001C32.4868 9.97991 32.1634 10.0099 31.8568 10.1532C31.5468 10.2966 31.3134 10.5266 31.0901 10.7466C30.9768 10.8566 30.8734 10.9599 30.7601 11.0499C30.3668 11.3632 30.0734 11.7166 29.8134 12.0532C29.7268 12.1666 29.6234 12.2766 29.5201 12.3832C29.3068 12.6099 29.0834 12.8466 28.9468 13.1599C28.8201 13.4499 28.7201 13.7166 28.6434 13.9766C28.6168 13.9632 28.5868 13.9499 28.5601 13.9366C28.3901 13.8566 28.2168 13.7766 28.0334 13.7066C28.1534 13.4899 28.2634 13.1932 28.0801 12.9099C27.8634 12.5766 27.4034 12.5299 27.0334 12.4899H27.0268C26.9568 12.4832 26.8934 12.4766 26.8368 12.4666C26.3434 12.3899 25.8068 12.4866 25.3768 12.7266C25.3134 12.3932 25.1101 12.1266 24.7834 11.9532C24.1834 11.6332 23.5468 11.6066 23.0368 11.8832C22.5501 12.1432 22.1001 12.6566 21.8868 13.1866C21.8401 13.3066 21.8168 13.4232 21.7968 13.5299C21.7801 13.6199 21.7634 13.7066 21.7334 13.7732C21.7234 13.7999 21.7034 13.8366 21.6868 13.8632C21.4701 13.9266 21.2701 14.0132 21.0768 14.0999C20.9468 14.1566 20.8134 14.2166 20.6834 14.2632C20.4534 14.3466 20.2468 14.4566 20.0468 14.5666C19.9134 14.3532 19.7234 14.1866 19.5401 14.0232C19.3968 13.8966 19.2634 13.7799 19.1768 13.6532C19.0934 13.5332 19.0201 13.4066 18.9434 13.2732C18.7834 12.9932 18.6134 12.7032 18.3434 12.4666L18.2534 12.3866C17.9201 12.0966 17.5768 11.7999 17.1601 11.5899C16.8434 11.4332 16.5068 11.3932 16.1801 11.3532C16.0201 11.3332 15.8701 11.3166 15.7234 11.2866C15.1901 11.1732 14.7501 11.1299 14.2968 11.1466C13.7868 11.1666 13.3168 11.2466 12.8201 11.4032C12.7034 11.4399 12.5834 11.4732 12.4668 11.5032C12.1034 11.6032 11.7268 11.7032 11.3868 11.9199C10.8701 12.2466 10.4868 12.5532 10.1834 12.8799C9.92343 13.1599 9.77343 13.4966 9.62676 13.8266C9.5701 13.9566 9.50676 14.0899 9.44343 14.2166C9.36676 14.3599 9.24676 14.5032 9.11676 14.6532C8.89343 14.9166 8.66343 15.1866 8.58343 15.5432C8.50676 15.8866 8.58343 16.2266 8.66343 16.5599C8.7101 16.7566 8.75343 16.9432 8.7601 17.1132C8.76676 17.2766 8.7501 17.4532 8.73343 17.6366V17.6432C8.7001 17.9832 8.6701 18.3332 8.77343 18.6732C8.9301 19.1766 9.11343 19.7032 9.38343 20.1332C9.61676 20.4999 9.94676 20.7966 10.2634 21.0799C10.3334 21.1432 10.4068 21.2066 10.4734 21.2699C10.7368 21.5132 11.0701 21.6032 11.3934 21.6866C11.5834 21.7366 11.7634 21.7832 11.9068 21.8599C12.0001 21.9099 12.0901 21.9599 12.1768 22.0099H12.1834C12.5068 22.1966 12.8434 22.3832 13.2568 22.4766C13.3201 22.4899 13.3934 22.5332 13.4601 22.5632C13.4568 22.6166 13.4534 22.6699 13.4468 22.7432C13.4268 22.9666 13.4001 23.2732 13.3901 23.6799C13.3801 23.8666 13.3501 24.0566 13.3168 24.2599C13.2668 24.5666 13.2134 24.8866 13.2468 25.2066C13.2801 25.5466 13.4234 25.8432 13.5634 26.1266C13.6534 26.3099 13.7401 26.4866 13.7834 26.6566C13.9034 27.1099 14.0434 27.5966 14.2634 28.0799C14.4434 28.4766 14.6801 28.8232 14.9101 29.1632L15.0468 29.3632C15.2968 29.7366 15.5901 30.0966 15.9901 30.5232C16.0568 30.5966 16.1234 30.6666 16.1901 30.7399C16.4534 31.0266 16.7234 31.3199 17.0534 31.5766C17.1934 31.6866 17.3234 31.8399 17.4601 32.0032C17.6601 32.2432 17.8701 32.4899 18.1601 32.6566C18.4401 32.8166 18.7568 32.8499 19.0634 32.8832C19.2868 32.9066 19.5001 32.9299 19.6701 32.9999C19.8368 33.0666 20.0001 33.1566 20.1734 33.2532C20.4401 33.3999 20.7168 33.5532 21.0368 33.6366C21.5168 33.7666 22.0101 33.8466 22.5134 33.9199C23.0034 33.9932 23.5068 34.0432 24.0068 34.0666C24.2001 34.0766 24.3968 34.1099 24.6068 34.1432C24.8234 34.1799 25.0434 34.2166 25.2701 34.2266C25.3568 34.2299 25.4401 34.2299 25.5201 34.2266C25.8668 34.2066 26.2034 34.1399 26.5301 34.0732C26.6901 34.0399 26.8568 34.0066 27.0201 33.9799C27.3568 33.9266 27.6734 33.8199 27.9834 33.7166C28.1434 33.6632 28.3101 33.6066 28.4734 33.5632C28.8068 33.4699 29.1101 33.3299 29.4001 33.1932H29.4068C29.5534 33.1199 29.7068 33.0499 29.8601 32.9866C30.0334 32.9166 30.2234 32.8666 30.4201 32.8132C30.7134 32.7332 31.0168 32.6532 31.2968 32.4966C31.5868 32.3332 31.8168 32.1099 32.0334 31.8932H32.0368C32.1768 31.7499 32.3101 31.6199 32.4534 31.5132C32.7768 31.2699 33.0401 30.9899 33.2934 30.7199C33.3701 30.6399 33.4468 30.5566 33.5268 30.4766C33.6534 30.3499 33.8301 30.2466 34.0168 30.1366C34.2901 29.9766 34.5734 29.8132 34.7668 29.5366C34.8034 29.4832 34.8134 29.4232 34.8101 29.3666C34.9168 29.3666 35.0268 29.3599 35.1301 29.3599C35.4034 29.3599 35.6868 29.3532 35.9734 29.3199C36.1601 29.2966 36.3634 29.3066 36.5768 29.3166C36.8601 29.3299 37.1534 29.3432 37.4434 29.2766C37.7468 29.2099 38.0234 29.0799 38.2934 28.9566C38.4734 28.8732 38.6434 28.7932 38.8134 28.7366C39.1401 28.6266 39.4368 28.4766 39.7301 28.3299C39.8634 28.2632 40.0001 28.1932 40.1368 28.1299C40.6034 27.9132 41.0201 27.6899 41.4168 27.4499C41.5701 27.3566 41.7401 27.2799 41.9234 27.1999C42.1934 27.0799 42.4701 26.9566 42.7168 26.7599C42.9601 26.5666 43.1568 26.3266 43.3434 26.0966V26.0899C43.4701 25.9399 43.5834 25.7999 43.7101 25.6732C43.8234 25.5566 43.9501 25.4432 44.0701 25.3332C44.3034 25.1232 44.5401 24.9066 44.7468 24.6432C44.9268 24.4132 44.9901 24.1766 44.9401 23.9399L44.9201 23.9466Z" fill="#46B5FF"/>
<path d="M25 49.0002C30.4933 49.0002 35.55 47.1502 39.5967 44.0468C36.4167 39.3902 31.0667 36.3335 25 36.3335C18.9333 36.3335 13.5867 39.3902 10.4033 44.0468C14.4467 47.1502 19.5067 49.0002 25 49.0002Z" fill="#46B5FF"/>
<path d="M25 49C38.2548 49 49 38.2548 49 25C49 11.7452 38.2548 1 25 1C11.7452 1 1 11.7452 1 25C1 38.2548 11.7452 49 25 49Z" stroke="#46B5FF" stroke-width="2" stroke-miterlimit="10"/>
</g>
<defs>
<clipPath id="clip0_322_582">
<rect width="50" height="50" fill="white"/>
</clipPath>
</defs>
</svg>
