<?xml version="1.0" encoding="UTF-8"?><svg id="_레이어_1" xmlns="http://www.w3.org/2000/svg" viewBox="0 0 16 16"><defs><style>.cls-1{fill:#bebfc0;}</style></defs><path class="cls-1" d="M15.99,8.61c-.03-.12-.14-.23-.31-.3-.07-.03-.14-.05-.21-.07-.06-.02-.2-.06-.21-.09-.03-.05-.02-.14-.01-.23,0-.07.01-.14,0-.21-.03-.31-.14-.5-.35-.55-.18-.05-.4.09-.49.18-.15.13-.3.27-.47.38-.07.05-.14.11-.21.16-.09.08-.18.15-.28.2-.09.05-.2.07-.31.09-.09.02-.19.04-.28.07-.08.03-.16.07-.24.1-.11.05-.22.1-.33.13l-.1.02s0,0,0,0c0-.03,0-.05,0-.08.01-.12.02-.25-.01-.38-.03-.13-.1-.26-.15-.37h0s-.02-.06-.03-.08c.09-.04.18-.09.26-.15.05-.03.1-.06.15-.09.06-.03.14-.06.21-.09.14-.05.28-.11.4-.22.12-.11.17-.25.23-.39.03-.08.06-.15.1-.21.1-.16.14-.33.18-.5h0s.02-.08.03-.12c.02-.07.07-.14.13-.21.09-.12.19-.26.19-.43s-.06-.33-.11-.48h-.02s.02,0,.02,0c-.02-.06-.04-.13-.06-.18-.06-.23-.17-.43-.27-.61-.12-.21-.23-.39-.39-.55-.11-.11-.25-.18-.39-.24-.07-.03-.13-.06-.19-.09-.21-.12-.39-.2-.6-.25-.07-.02-.14-.06-.21-.1-.13-.07-.27-.15-.43-.15-.15,0-.28.07-.4.13-.07.04-.14.07-.2.09-.06.01-.12.02-.19.03h0c-.14.02-.28.04-.41.11-.13.07-.23.17-.32.27-.05.05-.09.1-.14.14-.16.14-.29.3-.39.46-.04.05-.08.1-.12.15-.09.1-.18.21-.23.35-.05.13-.09.25-.12.36-.01,0-.02-.01-.04-.02-.08-.03-.15-.06-.23-.09.05-.1.09-.23,0-.35-.1-.14-.3-.15-.46-.16h0s-.06,0-.08,0c-.22-.02-.45.03-.63.14-.03-.14-.13-.26-.27-.33-.27-.13-.55-.13-.76,0-.21.12-.39.35-.47.59-.02.05-.03.1-.03.15,0,.04-.01.08-.02.11,0,.01-.01.03-.02.04-.09.03-.18.07-.26.12-.05.03-.11.06-.17.08-.1.04-.19.09-.27.14-.06-.09-.15-.16-.23-.23-.06-.05-.12-.1-.17-.15-.04-.05-.07-.1-.11-.16-.08-.12-.15-.24-.28-.34l-.04-.03c-.15-.12-.31-.24-.49-.32-.14-.06-.29-.07-.43-.08-.07,0-.14,0-.2-.02-.23-.04-.43-.05-.62-.03-.22.02-.42.06-.64.14-.05.02-.1.03-.15.05-.16.05-.32.1-.46.2-.22.15-.38.29-.5.44-.11.13-.17.28-.22.42-.02.06-.05.12-.07.17-.03.06-.08.13-.13.2-.09.12-.19.24-.21.4-.03.15.01.3.05.44.02.08.05.16.05.24,0,.07,0,.15,0,.23h0c0,.15-.01.3.04.45.08.22.17.44.29.62.11.16.26.28.4.39.03.03.06.05.1.08.12.1.27.13.41.16.08.02.16.04.23.07.04.02.08.04.12.06h0c.14.07.29.15.48.18.03,0,.06.02.09.03,0,.02,0,.05,0,.08,0,.1,0,.23,0,.41,0,.08,0,.17-.02.25-.02.14-.03.27-.01.41.02.15.09.27.16.39.04.08.08.15.11.23.06.19.13.4.24.61.09.17.2.32.3.46l.06.08c.12.16.25.31.43.48.03.03.06.06.09.09.12.12.24.24.39.35.06.04.12.11.19.18.09.1.19.2.32.27.13.06.26.07.4.08.1,0,.19.01.27.04.07.03.15.06.22.1.12.06.24.12.38.15.21.05.43.07.65.09.21.02.43.03.65.03.08,0,.17.01.26.02.09.01.19.02.29.02.04,0,.07,0,.11,0,.15-.02.29-.05.44-.09.07-.02.14-.04.21-.05.15-.03.28-.08.41-.13.07-.03.14-.05.21-.08.14-.05.27-.11.4-.18h0c.06-.03.13-.07.19-.1.07-.03.16-.06.24-.09.13-.04.26-.08.37-.16.12-.08.22-.18.31-.28h0c.06-.07.11-.12.17-.17.14-.11.24-.24.35-.36.03-.04.06-.07.1-.11.05-.06.13-.11.21-.16.12-.07.24-.15.31-.28.02-.02.02-.05.01-.08.05,0,.09,0,.14,0,.12,0,.24-.01.37-.04.08-.01.17-.01.26-.01.12,0,.25,0,.38-.03.13-.04.25-.1.36-.16.08-.04.15-.08.22-.11.14-.05.27-.13.39-.2.06-.03.11-.06.17-.1.2-.1.38-.21.54-.32.06-.04.14-.08.22-.12.11-.06.23-.12.34-.21.1-.09.18-.2.26-.3h0c.05-.07.1-.13.15-.19.05-.05.1-.1.15-.15.1-.1.2-.2.28-.31.07-.1.1-.21.07-.31Z"/></svg>